<svg xmlns="http://www.w3.org/2000/svg" viewBox="0 0 69.79 8.72"><path d="M33.64,8.61V.76h1.1v6.9h3.41v.95Z" fill="#5f6368"/><path d="M41.63,2.59a2.36,2.36,0,0,1,1.64.49,2,2,0,0,1,.54,1.53V8.72H43l-.21-1h0a2.65,2.65,0,0,1-.51.54,1.92,1.92,0,0,1-.62.32,2.72,2.72,0,0,1-.86.11,2.21,2.21,0,0,1-.95-.19,1.51,1.51,0,0,1-.66-.59,1.84,1.84,0,0,1-.24-1,1.56,1.56,0,0,1,.69-1.37,4,4,0,0,1,2.1-.51l1,0V4.7a1.28,1.28,0,0,0-.31-1,1.2,1.2,0,0,0-.86-.28,2.82,2.82,0,0,0-.87.13,5.64,5.64,0,0,0-.81.31l-.34-.78a4.08,4.08,0,0,1,.95-.36A4.15,4.15,0,0,1,41.63,2.59Zm1.11,3.15-.83,0a2.7,2.7,0,0,0-1.44.34,1,1,0,0,0-.41.84.83.83,0,0,0,.28.7,1.24,1.24,0,0,0,.75.22,1.76,1.76,0,0,0,1.19-.41,1.5,1.5,0,0,0,.46-1.2Z" fill="#5f6368"/><path d="M50.64,2.69v6h-.87l-.15-.92h-.06a1.54,1.54,0,0,1-.47.51,2.06,2.06,0,0,1-.65.31,3.07,3.07,0,0,1-1.92-.12,1.55,1.55,0,0,1-.72-.71,2.67,2.67,0,0,1-.24-1.22V2.69h1.08V6.42A1.59,1.59,0,0,0,47,7.49a1.21,1.21,0,0,0,.94.35,1.75,1.75,0,0,0,1-.24,1.38,1.38,0,0,0,.52-.72,3.51,3.51,0,0,0,.16-1.15v-3Z" fill="#5f6368"/><path d="M55.42,2.59A2.24,2.24,0,0,1,57,3.1a2.19,2.19,0,0,1,.55,1.66v4H56.48V4.9a1.54,1.54,0,0,0-.31-1.06,1.21,1.21,0,0,0-1-.36A1.43,1.43,0,0,0,53.93,4a2.76,2.76,0,0,0-.37,1.57V8.72H52.48v-6h.85l.16.84h.06A1.59,1.59,0,0,1,54,3a2.14,2.14,0,0,1,.64-.32A2.66,2.66,0,0,1,55.42,2.59Z" fill="#5f6368"/><path d="M61.73,8.72a3,3,0,0,1-1.43-.33,2.2,2.2,0,0,1-.95-1A3.87,3.87,0,0,1,59,5.69a3.74,3.74,0,0,1,.36-1.76,2.33,2.33,0,0,1,1-1,3.27,3.27,0,0,1,1.46-.32,4.46,4.46,0,0,1,.91.09,3.14,3.14,0,0,1,.7.25l-.32.87a5.51,5.51,0,0,0-.65-.21,2.61,2.61,0,0,0-.66-.09,1.65,1.65,0,0,0-.94.25,1.55,1.55,0,0,0-.56.73,3.47,3.47,0,0,0-.19,1.2,3.1,3.1,0,0,0,.19,1.16,1.4,1.4,0,0,0,.55.72,1.52,1.52,0,0,0,.9.25,3.21,3.21,0,0,0,.86-.11,3.64,3.64,0,0,0,.7-.27v1a2.39,2.39,0,0,1-.68.25A4,4,0,0,1,61.73,8.72Z" fill="#5f6368"/><path d="M65.79.1V2.55c0,.19,0,.37,0,.54s0,.32,0,.44h.07A1.78,1.78,0,0,1,66.27,3a2.06,2.06,0,0,1,.63-.31,2.55,2.55,0,0,1,.74-.1,2.75,2.75,0,0,1,1.17.22,1.6,1.6,0,0,1,.73.7,2.76,2.76,0,0,1,.25,1.24V8.7H68.72V4.9a1.54,1.54,0,0,0-.32-1.06,1.17,1.17,0,0,0-1-.36,1.75,1.75,0,0,0-1,.24,1.38,1.38,0,0,0-.52.72,3.86,3.86,0,0,0-.16,1.16V8.7H64.71V.1Z" fill="#5f6368"/><path d="M6.53,8.67H4.92l-2.67-4-.84.68V8.67H0V0H1.41V4.1c.17-.22.34-.43.52-.64l.53-.63L4.87,0H6.46L3.26,3.75Z" fill="#5bc0de"/><path d="M13.26,5.31a4.44,4.44,0,0,1-.21,1.43,2.86,2.86,0,0,1-.62,1.06,2.62,2.62,0,0,1-1,.66,3.47,3.47,0,0,1-1.28.22A3.24,3.24,0,0,1,9,8.46,2.66,2.66,0,0,1,8,7.8a3,3,0,0,1-.63-1.06,4.17,4.17,0,0,1-.22-1.43,4,4,0,0,1,.37-1.82A2.61,2.61,0,0,1,8.57,2.35,3.3,3.3,0,0,1,10.22,2a3.14,3.14,0,0,1,1.58.39,2.63,2.63,0,0,1,1.07,1.14A3.91,3.91,0,0,1,13.26,5.31Zm-4.71,0a3.59,3.59,0,0,0,.18,1.21,1.51,1.51,0,0,0,.53.77,1.56,1.56,0,0,0,.94.27,1.54,1.54,0,0,0,.94-.27,1.51,1.51,0,0,0,.53-.77,3.6,3.6,0,0,0,.17-1.21,3.6,3.6,0,0,0-.17-1.21,1.45,1.45,0,0,0-.53-.75,1.54,1.54,0,0,0-.94-.26A1.41,1.41,0,0,0,9,3.66,2.91,2.91,0,0,0,8.55,5.31Z" fill="#5bc0de"/><path d="M17.26,7.57a3.17,3.17,0,0,0,.53-.05,3.06,3.06,0,0,0,.48-.12v1a2.33,2.33,0,0,1-.59.17,3.77,3.77,0,0,1-.76.07,2.57,2.57,0,0,1-1-.18,1.49,1.49,0,0,1-.7-.64A2.52,2.52,0,0,1,15,6.62V3.13h-.89V2.51L15,2,15.49.77h.87V2.08h1.86v1H16.36V6.6a1,1,0,0,0,.25.73A.88.88,0,0,0,17.26,7.57Z" fill="#5bc0de"/><path d="M22.17,2a3,3,0,0,1,1.49.35,2.49,2.49,0,0,1,1,1A3.46,3.46,0,0,1,25,4.9v.74H20.62a2,2,0,0,0,.51,1.45,1.76,1.76,0,0,0,1.35.51,4.75,4.75,0,0,0,1.12-.12,6.5,6.5,0,0,0,1-.35V8.24a4,4,0,0,1-1,.34,6.09,6.09,0,0,1-1.21.1,3.57,3.57,0,0,1-1.67-.37A2.71,2.71,0,0,1,19.61,7.2a3.75,3.75,0,0,1-.4-1.83,4.12,4.12,0,0,1,.37-1.85,2.6,2.6,0,0,1,1-1.16A3,3,0,0,1,22.17,2Zm0,1a1.37,1.37,0,0,0-1.05.43,2,2,0,0,0-.47,1.23h3a2.31,2.31,0,0,0-.16-.86A1.23,1.23,0,0,0,23,3.21,1.33,1.33,0,0,0,22.17,3Z" fill="#5bc0de"/><path d="M29.12,8.68a3.47,3.47,0,0,1-1.6-.35,2.47,2.47,0,0,1-1-1.1,4.27,4.27,0,0,1-.36-1.87,4.08,4.08,0,0,1,.4-1.94,2.56,2.56,0,0,1,1.1-1.11A3.64,3.64,0,0,1,29.24,2a4.93,4.93,0,0,1,1.06.11,4.12,4.12,0,0,1,.8.28l-.41,1.1A4.91,4.91,0,0,0,30,3.21a2.66,2.66,0,0,0-.72-.1,1.63,1.63,0,0,0-.94.25,1.51,1.51,0,0,0-.57.75,3.63,3.63,0,0,0-.18,1.23,3.31,3.31,0,0,0,.19,1.21,1.56,1.56,0,0,0,.55.74,1.65,1.65,0,0,0,.91.25,3.48,3.48,0,0,0,1-.13,4.28,4.28,0,0,0,.79-.34v1.2a3,3,0,0,1-.79.31A4.32,4.32,0,0,1,29.12,8.68Z" fill="#5bc0de"/></svg>