<svg xmlns="http://www.w3.org/2000/svg" viewBox="0 0 71.26 8.93"><path d="M6.65,0H4.94L2.45,2.83c-.2.24-.41.47-.61.7L1.45,4V0H0V8.82H1.45V5.47l.73-.62L5,8.82h1.7L3.23,3.87Z" fill="#0070f3"/><path d="M11.77,2.4A3.23,3.23,0,0,0,10.14,2a3.32,3.32,0,0,0-1.68.41A2.68,2.68,0,0,0,7.37,3.59,4.23,4.23,0,0,0,7,5.45a4.39,4.39,0,0,0,.22,1.46A3.22,3.22,0,0,0,7.86,8a2.85,2.85,0,0,0,1,.69,3.39,3.39,0,0,0,1.25.23,3.56,3.56,0,0,0,1.31-.23,2.8,2.8,0,0,0,1-.69A3.2,3.2,0,0,0,13,6.91a4.72,4.72,0,0,0,.21-1.46,4.09,4.09,0,0,0-.39-1.86A2.8,2.8,0,0,0,11.77,2.4ZM10.13,7.72a1.55,1.55,0,0,1-1-.27,1.49,1.49,0,0,1-.54-.76,3.51,3.51,0,0,1-.19-1.24,2.86,2.86,0,0,1,.41-1.66,1.43,1.43,0,0,1,1.26-.57,1.62,1.62,0,0,1,1,.26,1.52,1.52,0,0,1,.54.75,3.65,3.65,0,0,1,.18,1.22,3.78,3.78,0,0,1-.18,1.24,1.45,1.45,0,0,1-1.48,1Z" fill="#0070f3"/><path d="M17.49,7.69a3.88,3.88,0,0,1-.48,0,.82.82,0,0,1-.61-.23,1,1,0,0,1-.23-.73V3.27H18V2.11H16.17V.64h-.94L14.8,2.07l-1,.45v.75h.9V6.79A2.56,2.56,0,0,0,15,8.07a1.55,1.55,0,0,0,.74.67,2.51,2.51,0,0,0,1,.19,4,4,0,0,0,.7-.06A2.55,2.55,0,0,0,18,8.71l.08,0V7.52l-.17.06A3,3,0,0,1,17.49,7.69Z" fill="#0070f3"/><path d="M23.31,2.37a3.19,3.19,0,0,0-3.11,0,2.83,2.83,0,0,0-1.05,1.21,4.32,4.32,0,0,0-.37,1.88,3.92,3.92,0,0,0,.41,1.87,2.74,2.74,0,0,0,1.15,1.16,3.55,3.55,0,0,0,1.7.39,5.87,5.87,0,0,0,1.19-.1,4.45,4.45,0,0,0,1-.34l.07,0V7.2l-.18.08a5.85,5.85,0,0,1-1,.33,4.32,4.32,0,0,1-1.07.12,1.72,1.72,0,0,1-1.35-.52,2.11,2.11,0,0,1-.5-1.38h4.38V5a3.49,3.49,0,0,0-.34-1.6A2.46,2.46,0,0,0,23.31,2.37Zm-1.52.79a1.39,1.39,0,0,1,.78.2,1.19,1.19,0,0,1,.45.58,2.24,2.24,0,0,1,.16.77H20.27a2,2,0,0,1,.47-1.13A1.36,1.36,0,0,1,21.79,3.16Z" fill="#0070f3"/><path d="M29.63,7.58a3.6,3.6,0,0,1-.91.11,1.63,1.63,0,0,1-.91-.25,1.48,1.48,0,0,1-.55-.73,3.35,3.35,0,0,1-.2-1.22,3.54,3.54,0,0,1,.2-1.26,1.64,1.64,0,0,1,.56-.74,2.08,2.08,0,0,1,1.65-.16,5.58,5.58,0,0,1,.69.23l.12,0,.43-1.17-.09-.05a3.55,3.55,0,0,0-.8-.28,4.76,4.76,0,0,0-1-.11,3.67,3.67,0,0,0-1.65.37A2.72,2.72,0,0,0,26,3.52a4.25,4.25,0,0,0-.4,2A4.31,4.31,0,0,0,26,7.41a2.59,2.59,0,0,0,1.09,1.15,3.37,3.37,0,0,0,1.62.37,5,5,0,0,0,1-.09,3.32,3.32,0,0,0,.78-.3l.06,0V7.19l-.18.1A4.56,4.56,0,0,1,29.63,7.58Z" fill="#0070f3"/><path d="M35.12,8.83V1h1.1v6.9h3.41v1Z" fill="#f5f5f5"/><path d="M43.11,2.81a2.43,2.43,0,0,1,1.64.48,2,2,0,0,1,.54,1.53v4h-.78L44.31,8h-.05a2.87,2.87,0,0,1-.51.53,1.94,1.94,0,0,1-.62.33,3.08,3.08,0,0,1-.86.1,2.25,2.25,0,0,1-1-.19,1.41,1.41,0,0,1-.65-.58,1.86,1.86,0,0,1-.24-1,1.54,1.54,0,0,1,.69-1.37,4,4,0,0,1,2.1-.51l1,0V4.91a1.28,1.28,0,0,0-.31-1,1.2,1.2,0,0,0-.86-.28,2.84,2.84,0,0,0-.88.13,7,7,0,0,0-.8.31L41,3.31A5.35,5.35,0,0,1,42,3,4.09,4.09,0,0,1,43.11,2.81ZM44.22,6l-.83,0A2.8,2.8,0,0,0,42,6.33a1,1,0,0,0-.42.85.83.83,0,0,0,.29.69,1.17,1.17,0,0,0,.75.22,1.68,1.68,0,0,0,1.18-.41,1.51,1.51,0,0,0,.47-1.2Z" fill="#f5f5f5"/><path d="M52.11,2.91V8.83h-.86L51.1,8H51a1.76,1.76,0,0,1-.47.51,2.41,2.41,0,0,1-.65.3,2.73,2.73,0,0,1-.76.1A2.67,2.67,0,0,1,48,8.71a1.53,1.53,0,0,1-.72-.7A2.74,2.74,0,0,1,47,6.78V2.91h1.09V6.63a1.57,1.57,0,0,0,.31,1.07,1.19,1.19,0,0,0,.94.35,1.75,1.75,0,0,0,1-.24,1.31,1.31,0,0,0,.52-.72A3.47,3.47,0,0,0,51,5.94v-3Z" fill="#f5f5f5"/><path d="M56.9,2.8a2.21,2.21,0,0,1,1.58.52A2.19,2.19,0,0,1,59,5V8.83H58V5.11a1.61,1.61,0,0,0-.31-1.06,1.21,1.21,0,0,0-1-.36,1.46,1.46,0,0,0-1.29.54A2.89,2.89,0,0,0,55,5.81v3H54V2.91h.85l.16.83H55a1.67,1.67,0,0,1,.47-.52,2.19,2.19,0,0,1,.65-.32A2.66,2.66,0,0,1,56.9,2.8Z" fill="#f5f5f5"/><path d="M63.21,8.93a3.08,3.08,0,0,1-1.43-.32,2.22,2.22,0,0,1-1-1,3.84,3.84,0,0,1-.34-1.7,3.77,3.77,0,0,1,.36-1.76,2.32,2.32,0,0,1,1-1,3.11,3.11,0,0,1,1.46-.33,3.71,3.71,0,0,1,.9.1,2.8,2.8,0,0,1,.71.24L64.6,4,64,3.8a2.61,2.61,0,0,0-.66-.09,1.71,1.71,0,0,0-.94.25,1.47,1.47,0,0,0-.56.74,3.19,3.19,0,0,0-.19,1.19,3.06,3.06,0,0,0,.19,1.16,1.44,1.44,0,0,0,.54.72,1.57,1.57,0,0,0,.91.25,3.26,3.26,0,0,0,.86-.11,3.64,3.64,0,0,0,.7-.27v1a3,3,0,0,1-.69.26A4.62,4.62,0,0,1,63.21,8.93Z" fill="#f5f5f5"/><path d="M67.27.47v2.3c0,.18,0,.36,0,.53s0,.33,0,.45h.06a1.69,1.69,0,0,1,.47-.52,1.86,1.86,0,0,1,.63-.31,2.55,2.55,0,0,1,.74-.11A2.74,2.74,0,0,1,70.29,3a1.55,1.55,0,0,1,.73.7A2.69,2.69,0,0,1,71.26,5V8.83H70.19V5.11a1.56,1.56,0,0,0-.31-1.06,1.19,1.19,0,0,0-.95-.36,1.67,1.67,0,0,0-1,.25,1.32,1.32,0,0,0-.52.71,3.57,3.57,0,0,0-.16,1.16v3H66.19V.47Z" fill="#f5f5f5"/></svg>